{"title":"jag.s03.season.3.dvdrip.xvid-topaz","uid":5282718,"size":8803068272,"categoryP":"video","categoryS":"tv_shows","magnet":"?xt=urn:btih:260eba7aba15d77b842ce01af1e916a1cb9a3b70&amp;dn=jag.s03.season.3.dvdrip.xvid-topaz&amp;tr=udp%3A%2F%2Ftracker.openbittorrent.com%3A80&amp;tr=udp%3A%2F%2Fopen.demonii.com%3A1337&amp;tr=udp%3A%2F%2Ftracker.coppersurfer.tk%3A6969&amp;tr=udp%3A%2F%2Fexodus.desync.com%3A6969","seeders":1,"leechers":2,"uploader":null,"files":48,"time":1263605068,"description":"Season 1: http://thepiratebay.se/torrent/5150860\nSeason 2: http://thepiratebay.se/torrent/5282717\nSeason 3: http://thepiratebay.se/torrent/5282718\nSeason 4: http://thepiratebay.se/torrent/5290267\nSeason 5: \nSeason 6:\nSeason 7:\nSeason 8:\nSeason 9:\nSeason 10:\n\n\nGeneral\nComplete name                    : tpz-jag301.avi\nFormat                           : AVI\nFormat/Info                      : Audio Video Interleave\nFile size                        : 350 MiB\nDuration                         : 46mn 2s\nOverall bit rate                 : 1 061 Kbps\nWriting application              : VirtualDubMod 1.5.10.2 (build 2540/release)\nWriting library                  : VirtualDubMod build 2540/release\n\nVideo\nID                               : 0\nFormat                           : MPEG-4 Visual\nFormat profile                   : AdvancedSimple@L5\nFormat settings, BVOP            : Yes\nFormat settings, QPel            : No\nFormat settings, GMC             : No warppoints\nFormat settings, Matrix          : Default (MPEG)\nMuxing mode                      : Packed bitstream\nCodec ID                         : XVID\nCodec ID/Hint                    : XviD\nDuration                         : 46mn 2s\nBit rate                         : 894 Kbps\nWidth                            : 576 pixels\nHeight                           : 432 pixels\nDisplay aspect ratio             : 4:3\nFrame rate                       : 23.976 fps\nResolution                       : 24 bits\nColorimetry                      : 4:2:0\nScan type                        : Progressive\nBits/(Pixel*Frame)               : 0.150\nStream size                      : 295 MiB (84%)\nWriting library                  : XviD 1.1.2 (UTC 2006-11-01)\n\nAudio\nID                               : 1\nFormat                           : MPEG Audio\nFormat version                   : Version 1\nFormat profile                   : Layer 3\nCodec ID                         : 55\nCodec ID/Hint                    : MP3\nDuration                         : 46mn 2s\nBit rate mode                    : Variable\nBit rate                         : 154 Kbps\nMinimum bit rate                 : 128 Kbps\nChannel(s)                       : 2 channels\nSampling rate                    : 48.0 KHz\nResolution                       : 16 bits\nStream size                      : 50.7 MiB (15%)\nAlignment                        : Aligned on interleaves\nInterleave, duration             : 24 ms (0.58 video frame)\nInterleave, preload duration     : 119 ms\nWriting library                  : LAME3.97 \nEncoding settings                : -m j -V 2 -q 3 -lowpass 18.6 --vbr-new -b 128\n\n","torrent":{"xt":"urn:btih:260eba7aba15d77b842ce01af1e916a1cb9a3b70","amp;dn":"jag.s03.season.3.dvdrip.xvid-topaz","amp;tr":["udp%3A%2F%2Ftracker.openbittorrent.com%3A80","udp%3A%2F%2Fopen.demonii.com%3A1337","udp%3A%2F%2Ftracker.coppersurfer.tk%3A6969","udp%3A%2F%2Fexodus.desync.com%3A6969"],"infoHash":"260eba7aba15d77b842ce01af1e916a1cb9a3b70","infoHashBuffer":{"type":"Buffer","data":[38,14,186,122,186,21,215,123,132,44,224,26,241,233,22,161,203,154,59,112]},"announce":[],"urlList":[]}}